<?xml version="1.0" encoding="UTF-8" standalone="no"?>
<svg
   xmlns:dc="http://purl.org/dc/elements/1.1/"
   xmlns:cc="http://creativecommons.org/ns#"
   xmlns:rdf="http://www.w3.org/1999/02/22-rdf-syntax-ns#"
   xmlns:svg="http://www.w3.org/2000/svg"
   xmlns="http://www.w3.org/2000/svg"
   xmlns:xlink="http://www.w3.org/1999/xlink"
   xmlns:sodipodi="http://sodipodi.sourceforge.net/DTD/sodipodi-0.dtd"
   xmlns:inkscape="http://www.inkscape.org/namespaces/inkscape"
   id="Layer_1"
   data-name="Layer 1"
   viewBox="0 0 1275.955 713.70001"
   version="1.1"
   sodipodi:docname="logo.svg"
   inkscape:version="0.92.4 (5da689c313, 2019-01-14)"
   width="1275.955"
   height="713.70001">
  <metadata
     id="metadata3885">
    <rdf:RDF>
      <cc:Work
         rdf:about="">
        <dc:format>image/svg+xml</dc:format>
        <dc:type
           rdf:resource="http://purl.org/dc/dcmitype/StillImage" />
        <dc:title>cyphervi-USETHISONE</dc:title>
      </cc:Work>
    </rdf:RDF>
  </metadata>
  <sodipodi:namedview
     pagecolor="#ffffff"
     bordercolor="#666666"
     borderopacity="1"
     objecttolerance="10"
     gridtolerance="10"
     guidetolerance="10"
     inkscape:pageopacity="0"
     inkscape:pageshadow="2"
     inkscape:window-width="1916"
     inkscape:window-height="1040"
     id="namedview3883"
     showgrid="false"
     inkscape:zoom="0.5275"
     inkscape:cx="331.57882"
     inkscape:cy="269.94796"
     inkscape:window-x="0"
     inkscape:window-y="36"
     inkscape:window-maximized="0"
     inkscape:current-layer="Layer_1" />
  <defs
     id="defs3802">
    <linearGradient
       id="linearGradient5668"
       inkscape:collect="always">
      <stop
         id="stop5664"
         offset="0"
         style="stop-color:#64ccc9;stop-opacity:1" />
      <stop
         id="stop5666"
         offset="1"
         style="stop-color:#00313c;stop-opacity:1" />
    </linearGradient>
    <linearGradient
       id="linearGradient5662"
       inkscape:collect="always">
      <stop
         id="stop5658"
         offset="0"
         style="stop-color:#64ccc9;stop-opacity:1" />
      <stop
         id="stop5660"
         offset="1"
         style="stop-color:#00313c;stop-opacity:1" />
    </linearGradient>
    <linearGradient
       id="linearGradient5656"
       inkscape:collect="always">
      <stop
         id="stop5652"
         offset="0"
         style="stop-color:#64ccc9;stop-opacity:1" />
      <stop
         id="stop5654"
         offset="1"
         style="stop-color:#00313c;stop-opacity:1" />
    </linearGradient>
    <linearGradient
       id="linearGradient5650"
       inkscape:collect="always">
      <stop
         id="stop5646"
         offset="0"
         style="stop-color:#64ccc9;stop-opacity:1" />
      <stop
         id="stop5648"
         offset="1"
         style="stop-color:#00313c;stop-opacity:1" />
    </linearGradient>
    <linearGradient
       id="linearGradient5644"
       inkscape:collect="always">
      <stop
         id="stop5640"
         offset="0"
         style="stop-color:#64ccc9;stop-opacity:1" />
      <stop
         id="stop5642"
         offset="1"
         style="stop-color:#00313c;stop-opacity:1" />
    </linearGradient>
    <linearGradient
       id="linearGradient5638"
       inkscape:collect="always">
      <stop
         id="stop5634"
         offset="0"
         style="stop-color:#64ccc9;stop-opacity:1" />
      <stop
         id="stop5636"
         offset="1"
         style="stop-color:#00313c;stop-opacity:1" />
    </linearGradient>
    <linearGradient
       id="linearGradient5632"
       inkscape:collect="always">
      <stop
         id="stop5628"
         offset="0"
         style="stop-color:#64ccc9;stop-opacity:1" />
      <stop
         id="stop5630"
         offset="1"
         style="stop-color:#00313c;stop-opacity:1" />
    </linearGradient>
    <linearGradient
       id="linearGradient5626"
       inkscape:collect="always">
      <stop
         id="stop5622"
         offset="0"
         style="stop-color:#64ccc9;stop-opacity:1" />
      <stop
         id="stop5624"
         offset="1"
         style="stop-color:#00313c;stop-opacity:1" />
    </linearGradient>
    <linearGradient
       id="linearGradient5620"
       inkscape:collect="always">
      <stop
         id="stop5616"
         offset="0"
         style="stop-color:#64ccc9;stop-opacity:1" />
      <stop
         id="stop5618"
         offset="1"
         style="stop-color:#00313c;stop-opacity:1" />
    </linearGradient>
    <linearGradient
       id="linearGradient5614"
       inkscape:collect="always">
      <stop
         id="stop5610"
         offset="0"
         style="stop-color:#64ccc9;stop-opacity:1" />
      <stop
         id="stop5612"
         offset="1"
         style="stop-color:#00313c;stop-opacity:1" />
    </linearGradient>
    <linearGradient
       id="linearGradient5608"
       inkscape:collect="always">
      <stop
         id="stop5604"
         offset="0"
         style="stop-color:#64ccc9;stop-opacity:1" />
      <stop
         id="stop5606"
         offset="1"
         style="stop-color:#00313c;stop-opacity:1" />
    </linearGradient>
    <linearGradient
       id="linearGradient5602"
       inkscape:collect="always">
      <stop
         id="stop5598"
         offset="0"
         style="stop-color:#64ccc9;stop-opacity:1" />
      <stop
         id="stop5600"
         offset="1"
         style="stop-color:#00313c;stop-opacity:1" />
    </linearGradient>
    <linearGradient
       id="linearGradient5596"
       inkscape:collect="always">
      <stop
         id="stop5592"
         offset="0"
         style="stop-color:#64ccc9;stop-opacity:1" />
      <stop
         id="stop5594"
         offset="1"
         style="stop-color:#00313c;stop-opacity:1" />
    </linearGradient>
    <linearGradient
       id="linearGradient5590"
       inkscape:collect="always">
      <stop
         id="stop5586"
         offset="0"
         style="stop-color:#64ccc9;stop-opacity:1" />
      <stop
         id="stop5588"
         offset="1"
         style="stop-color:#00313c;stop-opacity:1" />
    </linearGradient>
    <linearGradient
       id="linearGradient5584"
       inkscape:collect="always">
      <stop
         id="stop5580"
         offset="0"
         style="stop-color:#64ccc9;stop-opacity:1" />
      <stop
         id="stop5582"
         offset="1"
         style="stop-color:#00313c;stop-opacity:1" />
    </linearGradient>
    <linearGradient
       id="linearGradient5578"
       inkscape:collect="always">
      <stop
         id="stop5574"
         offset="0"
         style="stop-color:#64ccc9;stop-opacity:1" />
      <stop
         id="stop5576"
         offset="1"
         style="stop-color:#00313c;stop-opacity:1" />
    </linearGradient>
    <linearGradient
       id="linearGradient5572"
       inkscape:collect="always">
      <stop
         id="stop5568"
         offset="0"
         style="stop-color:#64ccc9;stop-opacity:1" />
      <stop
         id="stop5570"
         offset="1"
         style="stop-color:#00313c;stop-opacity:1" />
    </linearGradient>
    <linearGradient
       id="linearGradient5566"
       inkscape:collect="always">
      <stop
         id="stop5562"
         offset="0"
         style="stop-color:#64ccc9;stop-opacity:1" />
      <stop
         id="stop5564"
         offset="1"
         style="stop-color:#00313c;stop-opacity:1" />
    </linearGradient>
    <linearGradient
       id="linearGradient5560"
       inkscape:collect="always">
      <stop
         id="stop5556"
         offset="0"
         style="stop-color:#64ccc9;stop-opacity:1" />
      <stop
         id="stop5558"
         offset="1"
         style="stop-color:#00313c;stop-opacity:1" />
    </linearGradient>
    <linearGradient
       inkscape:collect="always"
       id="linearGradient5514">
      <stop
         style="stop-color:#64ccc9;stop-opacity:1"
         offset="0"
         id="stop5510" />
      <stop
         style="stop-color:#00313c;stop-opacity:1"
         offset="1"
         id="stop5512" />
    </linearGradient>
    <style
       id="style3800">.cls-1{fill:#fff;}</style>
    <linearGradient
       inkscape:collect="always"
       xlink:href="#linearGradient5514"
       id="linearGradient5516"
       x1="276.45364"
       y1="2.1324503"
       x2="276.45364"
       y2="734.74835"
       gradientUnits="userSpaceOnUse"
       gradientTransform="translate(362.99,-10.12)" />
    <linearGradient
       inkscape:collect="always"
       xlink:href="#linearGradient5668"
       id="linearGradient5518"
       x1="276.45364"
       y1="2.1324503"
       x2="276.45364"
       y2="734.74835"
       gradientUnits="userSpaceOnUse"
       gradientTransform="translate(362.99,-10.12)" />
    <linearGradient
       inkscape:collect="always"
       xlink:href="#linearGradient5662"
       id="linearGradient5520"
       x1="276.45364"
       y1="2.1324503"
       x2="276.45364"
       y2="734.74835"
       gradientUnits="userSpaceOnUse"
       gradientTransform="translate(362.99,-10.12)" />
    <linearGradient
       inkscape:collect="always"
       xlink:href="#linearGradient5656"
       id="linearGradient5522"
       x1="276.45364"
       y1="2.1324503"
       x2="276.45364"
       y2="734.74835"
       gradientUnits="userSpaceOnUse"
       gradientTransform="translate(362.99,-10.12)" />
    <linearGradient
       inkscape:collect="always"
       xlink:href="#linearGradient5650"
       id="linearGradient5524"
       x1="276.45364"
       y1="2.1324503"
       x2="276.45364"
       y2="734.74835"
       gradientUnits="userSpaceOnUse"
       gradientTransform="translate(362.99,-10.12)" />
    <linearGradient
       inkscape:collect="always"
       xlink:href="#linearGradient5644"
       id="linearGradient5526"
       x1="276.45364"
       y1="2.1324503"
       x2="276.45364"
       y2="734.74835"
       gradientUnits="userSpaceOnUse"
       gradientTransform="translate(362.99,-10.12)" />
    <linearGradient
       inkscape:collect="always"
       xlink:href="#linearGradient5638"
       id="linearGradient5528"
       x1="276.45364"
       y1="2.1324503"
       x2="276.45364"
       y2="734.74835"
       gradientUnits="userSpaceOnUse"
       gradientTransform="translate(362.99,-10.12)" />
    <linearGradient
       inkscape:collect="always"
       xlink:href="#linearGradient5632"
       id="linearGradient5530"
       x1="276.45364"
       y1="2.1324503"
       x2="276.45364"
       y2="734.74835"
       gradientUnits="userSpaceOnUse"
       gradientTransform="translate(362.99,-10.12)" />
    <linearGradient
       inkscape:collect="always"
       xlink:href="#linearGradient5626"
       id="linearGradient5532"
       x1="276.45364"
       y1="2.1324503"
       x2="276.45364"
       y2="734.74835"
       gradientUnits="userSpaceOnUse"
       gradientTransform="translate(362.99,-10.12)" />
    <linearGradient
       inkscape:collect="always"
       xlink:href="#linearGradient5620"
       id="linearGradient5534"
       x1="276.45364"
       y1="2.1324503"
       x2="276.45364"
       y2="734.74835"
       gradientUnits="userSpaceOnUse"
       gradientTransform="translate(362.99,-10.12)" />
    <linearGradient
       inkscape:collect="always"
       xlink:href="#linearGradient5614"
       id="linearGradient5536"
       x1="276.45364"
       y1="2.1324503"
       x2="276.45364"
       y2="734.74835"
       gradientUnits="userSpaceOnUse"
       gradientTransform="translate(362.99,-10.12)" />
    <linearGradient
       inkscape:collect="always"
       xlink:href="#linearGradient5608"
       id="linearGradient5538"
       x1="276.45364"
       y1="2.1324503"
       x2="276.45364"
       y2="734.74835"
       gradientUnits="userSpaceOnUse"
       gradientTransform="translate(362.99,-10.12)" />
    <linearGradient
       inkscape:collect="always"
       xlink:href="#linearGradient5602"
       id="linearGradient5540"
       x1="276.45364"
       y1="2.1324503"
       x2="276.45364"
       y2="734.74835"
       gradientUnits="userSpaceOnUse"
       gradientTransform="translate(362.99,-10.12)" />
    <linearGradient
       inkscape:collect="always"
       xlink:href="#linearGradient5596"
       id="linearGradient5542"
       x1="276.45364"
       y1="2.1324503"
       x2="276.45364"
       y2="734.74835"
       gradientUnits="userSpaceOnUse"
       gradientTransform="translate(362.99,-10.12)" />
    <linearGradient
       inkscape:collect="always"
       xlink:href="#linearGradient5590"
       id="linearGradient5544"
       x1="276.45364"
       y1="2.1324503"
       x2="276.45364"
       y2="734.74835"
       gradientUnits="userSpaceOnUse"
       gradientTransform="translate(362.99,-10.12)" />
    <linearGradient
       inkscape:collect="always"
       xlink:href="#linearGradient5584"
       id="linearGradient5546"
       x1="276.45364"
       y1="2.1324503"
       x2="276.45364"
       y2="734.74835"
       gradientUnits="userSpaceOnUse"
       gradientTransform="translate(362.99,-10.12)" />
    <linearGradient
       inkscape:collect="always"
       xlink:href="#linearGradient5578"
       id="linearGradient5548"
       x1="276.45364"
       y1="2.1324503"
       x2="276.45364"
       y2="734.74835"
       gradientUnits="userSpaceOnUse"
       gradientTransform="translate(362.99,-10.12)" />
    <linearGradient
       inkscape:collect="always"
       xlink:href="#linearGradient5572"
       id="linearGradient5550"
       x1="276.45364"
       y1="2.1324503"
       x2="276.45364"
       y2="734.74835"
       gradientUnits="userSpaceOnUse"
       gradientTransform="translate(362.99,-10.12)" />
    <linearGradient
       inkscape:collect="always"
       xlink:href="#linearGradient5566"
       id="linearGradient5552"
       x1="276.45364"
       y1="2.1324503"
       x2="276.45364"
       y2="734.74835"
       gradientUnits="userSpaceOnUse"
       gradientTransform="translate(362.99,-10.12)" />
    <linearGradient
       inkscape:collect="always"
       xlink:href="#linearGradient5560"
       id="linearGradient5554"
       x1="276.45364"
       y1="2.1324503"
       x2="276.45364"
       y2="734.74835"
       gradientUnits="userSpaceOnUse"
       gradientTransform="translate(362.99,-10.12)" />
  </defs>
  <title
     id="title3804">cyphervi-USETHISONE</title>
  <path
     d="M 246.21,497.52 V 217.15 h 185.38 v 280.37 z m 25.71,-215.95 c 16,21.64 31.51,42.6 46.7,63.12 h 29.5 l -45,-63.12 z m 105.18,63.31 28.31,-63.69 h -30.14 l -26.81,63.69 z m -35.35,44.91 c 2.1,14.75 4.1,28.84 6,42.5 h 25.96 l -6.12,-42.53 z"
     id="path3808"
     style="fill:url(#linearGradient5532);fill-opacity:1"
     inkscape:connector-curvature="0" />
  <path
     d="M 231.77,217.23 V 497.61 H 46.38 V 217.23 Z m -61.35,63.09 c -8.46,-0.48 -16.4,-1.51 -24.32,-1.29 -31,0.9 -55.56,20.65 -62.25,49.62 -9.4,40.67 12.93,84 51.83,100.2 17.51,7.32 35.54,9.25 54.73,4.54 -0.63,-7.94 -1.24,-15.59 -1.75,-22 -10.14,0 -19.79,1.44 -28.85,-0.26 -28.24,-5.3 -48.67,-29.82 -51.07,-59.56 -2.55,-31.53 16.51,-51 48,-48.8 5.2,0.36 10.34,1.53 15.86,2.38 -0.7,-8.08 -1.38,-15.82 -2.18,-24.83 z"
     id="path3810"
     style="fill:url(#linearGradient5530);fill-opacity:1"
     inkscape:connector-curvature="0" />
  <path
     d="M 1031.64,497.65 H 846.25 V 217.27 h 185.39 z M 887.36,304.88 h 89.14 c -1,-7.63 -2,-15.3 -3,-23.2 h -89.51 c 1.14,7.66 2.2,15.03 3.37,23.2 z m 17.8,127.86 h 89.15 c -0.92,-7.76 -1.81,-15.27 -2.74,-23.07 h -89.58 c 1.07,7.8 2.09,15.21 3.17,23.05 z m -8.78,-63.86 h 84.14 c -0.85,-7.56 -1.71,-15.27 -2.6,-23.24 h -84.93 c 1.15,7.8 2.23,15.29 3.39,23.24 z"
     id="path3812"
     style="fill:url(#linearGradient5538);fill-opacity:1"
     inkscape:connector-curvature="0" />
  <path
     d="M 446.35,217.1 H 631.72 V 497.47 H 446.35 Z m 86.07,216.21 c -1.22,-7.34 -2.32,-13.73 -3.34,-20.13 -1.02,-6.4 -1.92,-12.64 -2.86,-18.84 7.93,-0.5 15.44,-0.48 22.81,-1.54 20.73,-3 37.18,-17.44 40.56,-36.77 4.26,-24.35 -2.7,-45.4 -22.52,-60.82 -24.43,-19 -52.48,-16.69 -81.13,-12.46 0.72,7.92 1.41,15.45 2.12,23.26 2.69,-0.22 4.82,-0.52 7,-0.57 11.62,-0.24 23.39,-1.62 34.84,-0.33 16.43,1.87 29.15,10.3 34.46,27 6.37,20 -2,33.83 -22.75,36.69 -9.5,1.31 -19.23,1 -28.87,1.31 -4.73,0.15 -9.48,0 -14.44,0 2.8,21.19 5.59,42.39 8.33,63.21 z"
     id="path3814"
     style="fill:url(#linearGradient5534);fill-opacity:1"
     inkscape:connector-curvature="0" />
  <path
     d="M 831.77,217.24 V 497.61 H 646.39 V 217.24 Z m -40.78,151.42 c -4.18,-29.35 -8.33,-58.41 -12.54,-87.93 l -25.54,1.27 9,63 h -55.42 c -3.06,-21.41 -6.08,-42.6 -9,-63.33 h -25.75 c 4.24,29.48 8.38,58.23 12.52,87 z m 9.07,64.14 c -1.2,-7.93 -2.36,-15.55 -3.53,-23.24 h -25.54 c 1.14,8 2.22,15.62 3.31,23.24 z m -106.93,-0.57 h 25.69 c -1.19,-7.92 -2.27,-15.22 -3.38,-22.66 h -25.56 c 1.11,7.87 2.2,15.37 3.25,22.66 z"
     id="path3816"
     style="fill:url(#linearGradient5536);fill-opacity:1"
     inkscape:connector-curvature="0" />
  <path
     d="M 1231.77,217.24 V 497.61 H 1046.39 V 217.24 Z m -118,153.78 c 3.89,0 6.87,-0.06 9.85,0 11.31,0.26 22.29,-1.25 32.53,-6.3 10,-4.94 17.2,-12.39 20,-23.56 5.8,-23.31 -7.76,-47.9 -31.19,-56.26 -15.06,-5.37 -30.68,-5.67 -46.39,-4.57 -7.1,0.5 -14.17,1.33 -21.62,2.05 0.74,8.16 1.43,15.72 2.14,23.48 1.83,-0.21 3.13,-0.44 4.43,-0.49 13.45,-0.52 27,-2 40.33,-1.22 12.5,0.7 23.35,5.94 27.51,19.4 3.95,12.77 -0.59,20.92 -13.66,23.69 a 75.86,75.86 0 0 1 -17.35,1.51 c -11.28,-0.26 -22.53,-1.17 -34.28,-1.83 3.88,29 7.75,57.88 11.53,86.15 h 25.74 c -3.27,-21.09 -6.41,-41.44 -9.58,-62.05 z m 62.53,62.52 h 28.29 l -26.2,-37.11 -22.83,6.67 z"
     id="path3818"
     style="fill:url(#linearGradient5540);fill-opacity:1"
     inkscape:connector-curvature="0" />
  <path
     d="M 432.25,204.73 H 246.05 L 309.33,19.15 h 166.59 z"
     id="path3820"
     style="fill:url(#linearGradient5550);fill-opacity:1"
     inkscape:connector-curvature="0" />
  <path
     d="M 1031.99,204.75 H 845.74 L 802.04,19.08 h 166.58 z"
     id="path3822"
     style="fill:url(#linearGradient5544);fill-opacity:1"
     inkscape:connector-curvature="0" />
  <path
     d="m 246.04,511.02 h 186.2 q 21.82,92.75 43.75,185.69 H 309.38 Q 277.87,604.35 246.04,511.02 Z"
     id="path3824"
     style="fill:url(#linearGradient5526);fill-opacity:1"
     inkscape:connector-curvature="0" />
  <path
     d="m 802.04,695.68 c 14.66,-62.26 29.17,-123.93 43.7,-185.64 h 186.18 c -21.15,62 -42.2,123.78 -63.3,185.64 z"
     id="path3826"
     style="fill:url(#linearGradient5520);fill-opacity:1"
     inkscape:connector-curvature="0" />
  <path
     d="M 1045.99,204.56 984.1,19.21 h 149.24 l 98.48,185.35 z"
     id="path3828"
     style="fill:url(#linearGradient5542);fill-opacity:1"
     inkscape:connector-curvature="0" />
  <path
     d="M 231.99,203.77 H 46.07 c 33,-62.23 65.83,-123.94 98.63,-185.7 h 149.22 c -20.69,61.98 -41.29,123.7 -61.93,185.7 z"
     id="path3830"
     style="fill:url(#linearGradient5554);fill-opacity:1"
     inkscape:connector-curvature="0" />
  <path
     d="M 1133.26,696.72 H 984.04 q 31.08,-93.08 62,-185.66 h 185.84 z"
     id="path3832"
     style="fill:url(#linearGradient5518);fill-opacity:1"
     inkscape:connector-curvature="0" />
  <path
     d="m 46.05,509.99 h 185.87 l 62,185.59 H 144.65 Z"
     id="path3834"
     style="fill:url(#linearGradient5528);fill-opacity:1"
     inkscape:connector-curvature="0" />
  <path
     d="M 631.63,204.7 H 446.04 L 491.99,19.02 h 139.64 z"
     id="path3836"
     style="fill:url(#linearGradient5548);fill-opacity:1"
     inkscape:connector-curvature="0" />
  <path
     d="M 646.21,204.51 V 19.14 h 139.84 c 15.24,61.64 30.5,123.3 45.85,185.37 z"
     id="path3838"
     style="fill:url(#linearGradient5546);fill-opacity:1"
     inkscape:connector-curvature="0" />
  <path
     d="M 785.99,695.72 H 646.39 V 510.23 H 831.9 q -22.91,92.79 -45.91,185.49 z m -58.85,-51.23 c 2.37,-10 4.51,-19 6.71,-28.21 h -17.77 c -2.36,9.32 -4.7,18.59 -7.09,28.06 H 692.5 c -1.43,5.55 -2.78,10.81 -4.19,16.34 h 51.31 c 1.37,-5.31 2.68,-10.4 4.18,-16.19 z m 38.31,-89.36 h -51.22 c -1.39,5.34 -2.71,10.43 -4.23,16.25 h 16.73 c -1.08,4.84 -2,9 -3,13.36 h 17.76 c 1.21,-4.54 2.35,-8.8 3.55,-13.29 h 16.31 z"
     id="path3840"
     style="fill:url(#linearGradient5522);fill-opacity:1"
     inkscape:connector-curvature="0" />
  <path
     d="M 446.05,510.11 H 631.6 V 695.54 H 491.92 Q 469.08,603.19 446.05,510.11 Z m 115.2,145.26 h 20 L 514.93,555.11 h -19.18 q 33.24,50.93 65.5,100.26 z m 10.29,-100.49 c -1.1,11.9 -2.17,23.43 -3.27,35.25 l 16.55,25 c 1.65,-21.15 3.18,-40.62 4.71,-60.23 z"
     id="path3842"
     style="fill:url(#linearGradient5524);fill-opacity:1"
     inkscape:connector-curvature="0" />
  <path
     d="m 1139.23,0 h 29.67 c 0.71,1.28 1.53,2.69 2.28,4.14 q 51.39,97.92 102.69,195.88 a 19.06,19.06 0 0 1 2,8.49 q 0.17,148.47 0,296.94 a 17,17 0 0 1 -1.69,7.58 q -51.57,98.67 -103.33,197.23 c -0.62,1.17 -1.34,2.28 -2,3.44 h -29.5 c 1.08,-2.26 1.92,-4.2 2.89,-6.06 q 50.67,-96.6 101.28,-193.24 a 21,21 0 0 0 2.37,-9.4 q 0.18,-148.23 0,-296.44 a 20.22,20.22 0 0 0 -2.23,-9 Q 1192.93,102.48 1141.99,5.48 c -0.88,-1.6 -1.64,-3.21 -2.76,-5.48 z"
     id="path3844"
     style="fill:url(#linearGradient5516);fill-opacity:1"
     inkscape:connector-curvature="0" />
  <path
     d="m 107.04,1 h 29.71 c -1,2.11 -1.84,3.84 -2.73,5.52 Q 83.24,103.36 32.54,200.23 a 22.37,22.37 0 0 0 -2.45,9.88 q -0.18,147.23 0,294.45 a 22.31,22.31 0 0 0 2.41,9.89 q 50.61,96.93 101.49,193.7 c 0.84,1.6 1.62,3.24 2.67,5.34 h -29.67 c -0.62,-1.07 -1.54,-2.6 -2.37,-4.18 Q 53.34,611.6 2.16,513.88 a 19.11,19.11 0 0 1 -2.08,-8.49 q -0.16,-148.22 0,-296.45 a 19.87,19.87 0 0 1 2.5,-8.81 Q 53.22,103.22 104.07,6.43 c 0.92,-1.78 1.92,-3.55 2.97,-5.43 z"
     id="path3846"
     style="fill:url(#linearGradient5552);fill-opacity:1"
     inkscape:connector-curvature="0" />
  <path
     class="cls-1"
     d="m 271.92,281.57 h 31.24 l 45,63.12 h -29.5 c -15.23,-20.52 -30.74,-41.48 -46.74,-63.12 z"
     id="path3848"
     inkscape:connector-curvature="0"
     style="fill:#ffffff" />
  <path
     class="cls-1"
     d="m 377.1,344.88 h -28.64 l 26.81,-63.69 h 30.14 z"
     id="path3850"
     inkscape:connector-curvature="0"
     style="fill:#ffffff" />
  <path
     class="cls-1"
     d="m 341.75,389.76 h 25.84 l 6.12,42.5 H 347.8 c -1.95,-13.66 -3.95,-27.75 -6.05,-42.5 z"
     id="path3852"
     inkscape:connector-curvature="0"
     style="fill:#ffffff" />
  <path
     class="cls-1"
     d="m 170.42,280.32 c 0.8,9 1.48,16.75 2.2,24.85 -5.52,-0.85 -10.66,-2 -15.86,-2.38 -31.51,-2.17 -50.57,17.27 -48,48.8 2.4,29.74 22.83,54.26 51.07,59.56 9.06,1.7 18.71,0.26 28.85,0.26 0.51,6.39 1.12,14 1.75,22 -19.19,4.71 -37.22,2.78 -54.73,-4.54 -38.9,-16.25 -61.23,-59.53 -51.83,-100.2 6.69,-29 31.24,-48.72 62.25,-49.62 7.87,-0.24 15.87,0.83 24.3,1.27 z"
     id="path3854"
     inkscape:connector-curvature="0"
     style="fill:#ffffff" />
  <path
     class="cls-1"
     d="m 887.36,304.88 c -1.17,-8.15 -2.23,-15.52 -3.33,-23.2 h 89.5 c 1,7.9 2,15.57 3,23.2 z"
     id="path3856"
     inkscape:connector-curvature="0"
     style="fill:#ffffff" />
  <path
     class="cls-1"
     d="m 905.16,432.72 c -1.08,-7.87 -2.1,-15.25 -3.18,-23.07 h 89.59 c 0.93,7.8 1.82,15.31 2.74,23.07 z"
     id="path3858"
     inkscape:connector-curvature="0"
     style="fill:#ffffff" />
  <path
     class="cls-1"
     d="m 896.38,368.88 c -1.16,-8 -2.24,-15.46 -3.37,-23.24 h 84.91 c 0.89,8 1.75,15.68 2.6,23.24 z"
     id="path3860"
     inkscape:connector-curvature="0"
     style="fill:#ffffff" />
  <path
     class="cls-1"
     d="m 532.42,433.31 h -25.83 c -2.74,-20.82 -5.53,-42 -8.33,-63.21 5,0 9.71,0.13 14.44,0 9.64,-0.31 19.37,0 28.87,-1.31 20.72,-2.86 29.12,-16.67 22.75,-36.69 -5.31,-16.67 -18,-25.1 -34.46,-27 -11.45,-1.29 -23.22,0.09 -34.84,0.33 -2.14,0.05 -4.27,0.35 -7,0.57 -0.71,-7.81 -1.4,-15.34 -2.12,-23.26 28.65,-4.23 56.7,-6.56 81.13,12.46 19.82,15.42 26.78,36.47 22.52,60.82 -3.38,19.33 -19.83,33.78 -40.56,36.77 -7.37,1.06 -14.88,1 -22.81,1.54 0.94,6.2 1.86,12.52 2.86,18.84 1,6.32 2.16,12.8 3.38,20.14 z"
     id="path3862"
     inkscape:connector-curvature="0"
     style="fill:#ffffff" />
  <path
     class="cls-1"
     d="M 790.99,368.66 H 684.26 c -4.14,-28.76 -8.28,-57.51 -12.52,-87 h 25.72 c 2.95,20.73 6,41.92 9,63.33 h 55.43 l -9,-63 25.54,-1.27 c 4.23,29.53 8.38,58.59 12.56,87.94 z"
     id="path3864"
     inkscape:connector-curvature="0"
     style="fill:#ffffff" />
  <path
     class="cls-1"
     d="M 800.06,432.8 H 774.3 c -1.09,-7.62 -2.17,-15.24 -3.31,-23.24 h 25.54 c 1.17,7.69 2.33,15.32 3.53,23.24 z"
     id="path3866"
     inkscape:connector-curvature="0"
     style="fill:#ffffff" />
  <path
     class="cls-1"
     d="m 693.13,432.23 c -1.05,-7.29 -2.12,-14.79 -3.25,-22.66 h 25.56 c 1.11,7.44 2.19,14.74 3.38,22.66 z"
     id="path3868"
     inkscape:connector-curvature="0"
     style="fill:#ffffff" />
  <path
     class="cls-1"
     d="m 1113.76,371.02 c 3.17,20.61 6.31,41 9.55,62.06 h -25.74 c -3.78,-28.27 -7.65,-57.17 -11.53,-86.15 11.75,0.66 23,1.57 34.28,1.83 a 75.86,75.86 0 0 0 17.35,-1.51 c 13.07,-2.77 17.61,-10.92 13.66,-23.69 -4.16,-13.46 -15,-18.7 -27.51,-19.4 -13.38,-0.74 -26.88,0.7 -40.33,1.22 -1.3,0.05 -2.6,0.28 -4.43,0.49 -0.71,-7.76 -1.4,-15.32 -2.14,-23.48 7.45,-0.72 14.52,-1.55 21.62,-2.05 15.71,-1.1 31.33,-0.8 46.39,4.57 23.43,8.36 37,33 31.19,56.26 -2.78,11.17 -10,18.62 -20,23.56 -10.24,5 -21.22,6.56 -32.53,6.3 -2.96,-0.07 -5.94,-0.01 -9.83,-0.01 z"
     id="path3870"
     inkscape:connector-curvature="0"
     style="fill:#ffffff" />
  <path
     class="cls-1"
     d="m 1176.29,433.54 -20.73,-30.44 22.83,-6.67 26.19,37.11 z"
     id="path3872"
     inkscape:connector-curvature="0"
     style="fill:#ffffff" />
  <path
     class="cls-1"
     d="m 727.18,644.49 h 16.62 c -1.5,5.79 -2.81,10.88 -4.18,16.19 h -51.31 c 1.41,-5.53 2.76,-10.79 4.19,-16.34 h 16.49 c 2.39,-9.47 4.73,-18.74 7.09,-28.06 h 17.81 c -2.2,9.26 -4.34,18.24 -6.71,28.21 z"
     id="path3874"
     inkscape:connector-curvature="0"
     style="fill:#ffffff" />
  <path
     class="cls-1"
     d="m 765.49,555.13 -4.14,16.32 h -16.31 c -1.2,4.49 -2.34,8.75 -3.55,13.29 h -17.75 c 1,-4.4 1.91,-8.52 3,-13.36 h -16.75 c 1.52,-5.82 2.84,-10.91 4.23,-16.25 z"
     id="path3876"
     inkscape:connector-curvature="0"
     style="fill:#ffffff" />
  <path
     class="cls-1"
     d="m 561.25,655.37 q -32.3,-49.41 -65.5,-100.26 h 19.18 l 66.34,100.26 z"
     id="path3878"
     inkscape:connector-curvature="0"
     style="fill:#ffffff" />
  <path
     class="cls-1"
     d="m 571.54,554.88 h 18 c -1.53,19.61 -3.06,39.08 -4.71,60.23 l -16.55,-25 c 1.09,-11.82 2.16,-23.35 3.26,-35.23 z"
     id="path3880"
     inkscape:connector-curvature="0"
     style="fill:#ffffff" />
</svg>
